HIERARCHY
ROOT Hips
{
  OFFSET 54.1177 95.6983 11.5625
  CHANNELS 6 Xposition Yposition Zposition Zrotation Xrotation Yrotation
  JOINT spine
  {
    OFFSET 0 7.96568 0.458067
    CHANNELS 3 Zrotation Xrotation Yrotation
    JOINT spine1
    {
      OFFSET 0 10.2431 0
      CHANNELS 3 Zrotation Xrotation Yrotation
      JOINT spine2
      {
        OFFSET 0 9.81475 0
        CHANNELS 3 Zrotation Xrotation Yrotation
        JOINT Neck
        {
          OFFSET 0 25.1986 1.20138
          CHANNELS 3 Zrotation Xrotation Yrotation
          JOINT Head
          {
            OFFSET 0 7.61315 0
            CHANNELS 3 Zrotation Xrotation Yrotation
            End Site
            {
              OFFSET 0 18.4281 -6.07733
            }
          }
        }
        JOINT RightShoulder
        {
          OFFSET -4.1327 10.5992 -0.575451
          CHANNELS 3 Zrotation Xrotation Yrotation
          JOINT RightArm
          {
            OFFSET 0 13.9018 0
            CHANNELS 3 Zrotation Xrotation Yrotation
            JOINT RightArmRoll
            {
              OFFSET 0 7.01789 0
              CHANNELS 3 Zrotation Xrotation Yrotation
              JOINT RightForeArm
              {
                OFFSET 0 20.4406 0
                CHANNELS 3 Zrotation Xrotation Yrotation
                JOINT RightForeArmRoll
                {
                  OFFSET 0 7.87515 0
                  CHANNELS 3 Zrotation Xrotation Yrotation
                  JOINT RightHand
                  {
                    OFFSET 0 15.8037 0
                    CHANNELS 3 Zrotation Xrotation Yrotation
                    End Site
                    {
                      OFFSET 0 0 0
                    }
                  }
                }
              }
            }
          }
        }
        JOINT LeftShoulder
        {
          OFFSET 4.1327 10.5992 -0.575451
          CHANNELS 3 Zrotation Xrotation Yrotation
          JOINT LeftArm
          {
            OFFSET 0 13.9018 0
            CHANNELS 3 Zrotation Xrotation Yrotation
            JOINT LeftArmRoll
            {
              OFFSET 0 7.01789 0
              CHANNELS 3 Zrotation Xrotation Yrotation
              JOINT LeftForeArm
              {
                OFFSET 0 20.4406 0
                CHANNELS 3 Zrotation Xrotation Yrotation
                JOINT LeftForeArmRoll
                {
                  OFFSET 0 7.87516 0
                  CHANNELS 3 Zrotation Xrotation Yrotation
                  JOINT LeftHand
                  {
                    OFFSET 0 15.8037 0
                    CHANNELS 3 Zrotation Xrotation Yrotation
                    End Site
                    {
                      OFFSET 0 0 0
                    }
                  }
                }
              }
            }
          }
        }
      }
    }
  }
  JOINT RightUpLeg
  {
    OFFSET -7.06048 -1.2947 -1.08609
    CHANNELS 3 Zrotation Xrotation Yrotation
    JOINT RightUpLegRoll
    {
      OFFSET 0 18.5308 0
      CHANNELS 3 Zrotation Xrotation Yrotation
      JOINT RightLeg
      {
        OFFSET 0 -22.9476 0
        CHANNELS 3 Zrotation Xrotation Yrotation
        JOINT RightLegRoll
        {
          OFFSET 0 23.0226 0
          CHANNELS 3 Zrotation Xrotation Yrotation
          JOINT RightFoot
          {
            OFFSET 0 19.1625 0
            CHANNELS 3 Zrotation Xrotation Yrotation
            JOINT RightToeBase
            {
              OFFSET 0 16.0188 0
              CHANNELS 3 Zrotation Xrotation Yrotation
              End Site
              {
                OFFSET 0.00678979 7.75782 -0.894206
              }
            }
          }
        }
      }
    }
  }
  JOINT LeftUpLeg
  {
    OFFSET 7.06048 -1.2947 -1.08609
    CHANNELS 3 Zrotation Xrotation Yrotation
    JOINT LeftUpLegRoll
    {
      OFFSET 0 18.5309 0
      CHANNELS 3 Zrotation Xrotation Yrotation
      JOINT LeftLeg
      {
        OFFSET 0 22.9475 0
        CHANNELS 3 Zrotation Xrotation Yrotation
        JOINT LeftLegRoll
        {
          OFFSET 0 23.2355 0
          CHANNELS 3 Zrotation Xrotation Yrotation
          JOINT LeftFoot
          {
            OFFSET 0 18.9496 0
            CHANNELS 3 Zrotation Xrotation Yrotation
            JOINT LeftToeBase
            {
              OFFSET 0 16.0188 0
              CHANNELS 3 Zrotation Xrotation Yrotation
              End Site
              {
                OFFSET -0.0304289 7.75782 -0.894206
              }
            }
          }
        }
      }
    }
  }
}
MOTION
Frames: 12
Frame Time: 0.00208333
53.8247 95.7656 11.1259 -0.987395 -4.95544 2.2652 0.269012 -1.7477 0.227329 0.542554 0.509519 0.427598 0.537701 2.15453 0.418675 -6.64654 30.4039 0.594418 7.1549 -5.19581 -1.08336 62.3104 3.41676 1.50624 119.911 44.2714 -37.1073 -6.84165e-006 4.47124e-006 3.00149e-006 -136.794 87.21 130.207 -5.75923e-006 -4.53921e-006 -3.00418 8.02998 -4.95138 0.697659 -62.8704 -1.80554 1.5326 -124.596 46.2168 49.0246 -3.52008e-006 3.09774e-006 -8.45384e-006 21.9585 87.3763 -16.0955 6.54794e-006 1.94832e-006 3.0074 -8.03028 -4.95139 -0.697635 176.798 -6.5612 -2.43356 -180 7.01505e-015 178.753 178.012 3.65515 179.598 1.58977e-007 3.62128e-006 0.0409528 -18.8744 68.0008 19.5306 8.13322 25.2481 -3.46544 -171.846 -1.65789 -0.876024 4.54188e-006 -4.6773e-006 -1.14366 -1.78687 -7.91962 0.204424 -8.75559e-007 3.14676e-006 -0.0489802 18.3601 68.845 -20.242 -8.13649 25.2327 3.48774 
53.8253 95.7666 11.1223 -0.977483 -4.94625 2.27434 0.266623 -1.7494 0.226744 0.537457 0.505892 0.426726 0.53261 2.15091 0.417887 -6.59792 30.3931 0.552847 7.1303 -5.18433 -1.10868 62.2662 3.38688 1.49627 119.765 44.2794 -36.9917 -6.84165e-006 4.47124e-006 3.00149e-006 -136.187 87.234 129.611 -5.75923e-006 -4.53921e-006 -3.00418 8.02998 -4.95138 0.697659 -62.8972 -1.78103 1.5213 -124.288 46.198 48.7792 -3.52008e-006 3.09774e-006 -8.45384e-006 22.0431 87.3663 -16.1738 6.54794e-006 1.94832e-006 3.0074 -8.03028 -4.95139 -0.697635 176.786 -6.5478 -2.42511 -180 7.01505e-015 178.753 178.007 3.65817 179.599 1.58977e-007 3.62128e-006 0.0409533 -18.8739 68.0001 19.5297 8.13335 25.25 -3.4629 -171.858 -1.65407 -0.869007 4.54188e-006 -4.6773e-006 -1.14316 -1.78856 -7.90398 0.204291 -8.75559e-007 3.14676e-006 -0.0492524 18.3576 68.8421 -20.2382 -8.13649 25.2327 3.48774 
53.8327 95.7604 11.1188 -0.968121 -4.93642 2.28384 0.26424 -1.75136 0.226328 0.532391 0.501768 0.426191 0.527547 2.14679 0.417438 -6.54564 30.3836 0.509355 7.10501 -5.17226 -1.13461 62.2237 3.35594 1.4854 119.613 44.2869 -36.869 -6.84165e-006 4.47124e-006 3.00149e-006 -135.589 87.2554 129.023 -5.75923e-006 -4.53921e-006 -3.00418 8.02998 -4.95138 0.697659 -62.9208 -1.75669 1.50979 -123.983 46.1771 48.5294 -3.52008e-006 3.09774e-006 -8.45384e-006 22.1327 87.3565 -16.2579 6.54794e-006 1.94832e-006 3.00739 -8.03028 -4.95139 -0.697635 176.775 -6.53417 -2.41701 -180 7.01505e-015 178.753 178.001 3.66075 179.599 1.58977e-007 3.62128e-006 0.0409537 -18.8735 67.9995 19.5288 8.13347 25.2517 -3.46056 -171.869 -1.64927 -0.862264 4.54188e-006 -4.6773e-006 -1.14267 -1.79012 -7.88885 0.204176 -8.75559e-007 3.14676e-006 -0.0495023 18.3553 68.8392 -20.2344 -8.13649 25.2327 3.48774 
53.8302 95.7781 11.1148 -0.959469 -4.92592 2.29373 0.261871 -1.75359 0.226114 0.527379 0.497113 0.426055 0.522533 2.14213 0.417386 -6.48905 30.3761 0.463785 7.07849 -5.1607 -1.16109 62.1835 3.32344 1.47326 119.455 44.2941 -36.7395 -6.84165e-006 4.47124e-006 3.00149e-006 -135 87.2744 128.444 -5.75923e-006 -4.53921e-006 -3.00418 8.02998 -4.95138 0.697659 -62.9406 -1.73264 1.49804 -123.681 46.1542 48.2753 -3.52008e-006 3.09774e-006 -8.45384e-006 22.2213 87.3467 -16.3422 6.54794e-006 1.94832e-006 3.00739 -8.03028 -4.95139 -0.697635 176.764 -6.52035 -2.40942 -180 7.01505e-015 178.753 177.995 3.66283 179.6 1.58977e-007 3.62128e-006 0.0409542 -18.8731 67.9989 19.5279 8.13357 25.2532 -3.45848 -171.879 -1.64328 -0.855917 4.54188e-006 -4.6773e-006 -1.14221 -1.79154 -7.87456 0.204082 -8.75559e-007 3.14676e-006 -0.0497194 18.3531 68.8366 -20.231 -8.13649 25.2327 3.48774 
53.8536 95.7733 11.1307 -0.951688 -4.91471 2.30406 0.259522 -1.75611 0.226132 0.522447 0.491895 0.426377 0.517593 2.13692 0.417791 -6.42751 30.3711 0.415975 7.05021 -5.15073 -1.18801 62.146 3.28884 1.45948 119.291 44.3014 -36.6034 -6.84165e-006 4.47124e-006 3.00149e-006 -134.42 87.2913 127.873 -5.75923e-006 -4.53921e-006 -3.00418 8.02998 -4.95138 0.697659 -62.9556 -1.70901 1.48605 -123.384 46.1295 48.0169 -3.52008e-006 3.09774e-006 -8.45384e-006 22.3029 87.3367 -16.421 6.54794e-006 1.94832e-006 3.00739 -8.03028 -4.95139 -0.697635 176.755 -6.5064 -2.40251 -180 7.01505e-015 178.753 177.989 3.6644 179.6 1.58977e-007 3.62128e-006 0.0409546 -18.8727 67.9983 19.5272 8.13366 25.2545 -3.45675 -171.888 -1.63586 -0.850091 4.54188e-006 -4.6773e-006 -1.14177 -1.79278 -7.86144 0.204013 -8.75559e-007 3.14676e-006 -0.0498933 18.351 68.8342 -20.2278 -8.13649 25.2327 3.48774 
53.8518 95.7757 11.1228 -0.944939 -4.90279 2.31487 0.257203 -1.75894 0.226413 0.517616 0.486083 0.427218 0.512749 2.13111 0.418713 -6.36036 30.3693 0.365763 7.01966 -5.14345 -1.21531 62.1117 3.25162 1.44369 119.12 44.3091 -36.4607 -6.84165e-006 4.47124e-006 3.00149e-006 -133.847 87.3064 127.309 -5.75923e-006 -4.53921e-006 -3.00418 8.02998 -4.95138 0.697659 -62.965 -1.68592 1.47381 -123.094 46.103 47.7543 -3.52008e-006 3.09774e-006 -8.45384e-006 22.3716 87.3263 -16.4889 6.54794e-006 1.94832e-006 3.00739 -8.03028 -4.95139 -0.697635 176.747 -6.49236 -2.39642 -180 7.01505e-015 178.754 177.983 3.66545 179.6 1.58977e-007 3.62128e-006 0.0409551 -18.8724 67.9979 19.5265 8.13372 25.2555 -3.45542 -171.896 -1.62678 -0.844911 4.54188e-006 -4.6773e-006 -1.14136 -1.79383 -7.84984 0.203975 -8.75559e-007 3.14676e-006 -0.0500136 18.3491 68.8322 -20.2251 -8.13649 25.2327 3.48774 
53.8346 95.7782 11.1126 -0.93938 -4.89011 2.32621 0.254921 -1.7621 0.226987 0.512913 0.479642 0.428638 0.508025 2.12467 0.420212 -6.28694 30.3711 0.312988 6.98629 -5.13996 -1.2429 62.0811 3.21125 1.42551 118.943 44.3175 -36.3117 -6.84165e-006 4.47124e-006 3.00149e-006 -133.281 87.3198 126.752 -5.75923e-006 -4.53921e-006 -3.00418 8.02998 -4.95138 0.697659 -62.9681 -1.66351 1.46131 -122.812 46.075 47.4876 -3.52008e-006 3.09774e-006 -8.45384e-006 22.4214 87.3153 -16.5403 6.54794e-006 1.94832e-006 3.00739 -8.03028 -4.95139 -0.697635 176.741 -6.47826 -2.39133 -180 7.01505e-015 178.754 177.978 3.66593 179.601 1.58977e-007 3.62128e-006 0.0409555 -18.8722 67.9974 19.5259 8.13376 25.2561 -3.45458 -171.902 -1.61581 -0.840501 4.54188e-006 -4.6773e-006 -1.141 -1.79467 -7.84007 0.203972 -8.75559e-007 3.14676e-006 -0.05007 18.3474 68.8306 -20.2229 -8.13649 25.2327 3.48774 
53.8453 95.7642 11.1146 -0.935175 -4.87666 2.33812 0.252684 -1.7656 0.227886 0.508361 0.472542 0.430696 0.503445 2.11757 0.422347 -6.20659 30.3771 0.257483 6.94958 -5.14134 -1.2707 62.0547 3.16721 1.40457 118.759 44.3271 -36.1565 -6.84165e-006 4.47124e-006 3.00149e-006 -132.72 87.3319 126.199 -5.75923e-006 -4.53921e-006 -3.00418 8.02998 -4.95138 0.697659 -62.964 -1.64189 1.44853 -122.541 46.0456 47.2169 -3.52008e-006 3.09774e-006 -8.45384e-006 22.4467 87.3034 -16.5699 6.54794e-006 1.94832e-006 3.00739 -8.03028 -4.95139 -0.697635 176.737 -6.46415 -2.38739 -180 7.01505e-015 178.754 177.972 3.66582 179.601 1.58977e-007 3.62128e-006 0.040956 -18.872 67.9971 19.5254 8.13378 25.2563 -3.45428 -171.907 -1.60274 -0.836985 4.54188e-006 -4.6773e-006 -1.14068 -1.79527 -7.83247 0.204009 -8.75559e-007 3.14676e-006 -0.050052 18.3459 68.8294 -20.2213 -8.13649 25.2327 3.48774 
53.8398 95.7644 11.1178 -0.932261 -4.86139 2.35132 0.250383 -1.76974 0.229264 0.503743 0.464196 0.433708 0.498787 2.10922 0.425437 -6.11532 30.3872 0.196581 6.90813 -5.1452 -1.30007 62.0334 3.11868 1.38025 118.566 44.3364 -35.9949 -6.84165e-006 4.47124e-006 3.00149e-006 -132.166 87.3416 125.653 -5.75923e-006 -4.53921e-006 -3.00418 8.02998 -4.95138 0.697659 -62.9507 -1.61984 1.43457 -122.282 46.0129 46.9417 -3.52008e-006 3.09774e-006 -8.45384e-006 22.4263 87.2897 -16.5574 6.54794e-006 1.94832e-006 3.00739 -8.03028 -4.95139 -0.697635 176.734 -6.44917 -2.38446 -180 7.01505e-015 178.754 177.967 3.66489 179.601 1.58977e-007 3.62128e-006 0.0409564 -18.8718 67.9967 19.525 8.13376 25.2561 -3.45458 -171.91 -1.58646 -0.83421 4.54188e-006 -4.6773e-006 -1.14041 -1.79557 -7.82679 0.20411 -8.75559e-007 3.14676e-006 -0.0499528 18.3447 68.8287 -20.2203 -8.13649 25.2327 3.48774 
53.8421 95.7679 11.1137 -0.930412 -4.84358 2.36628 0.247927 -1.77471 0.231197 0.498874 0.454212 0.437835 0.493864 2.09924 0.429647 -6.01092 30.4003 0.128506 6.86152 -5.14849 -1.33212 62.0175 3.06568 1.35252 118.363 44.3438 -35.8268 -6.84165e-006 4.47124e-006 3.00149e-006 -131.625 87.3482 125.118 -5.75923e-006 -4.53921e-006 -3.00417 8.02998 -4.95138 0.697659 -62.9279 -1.5963 1.41877 -122.035 45.9753 46.6618 -3.52008e-006 3.09774e-006 -8.45384e-006 22.352 87.2735 -16.4947 6.54794e-006 1.94832e-006 3.00739 -8.03028 -4.95139 -0.697635 176.733 -6.4326 -2.38225 -180 7.01505e-015 178.754 177.96 3.66297 179.602 1.58977e-007 3.62128e-006 0.0409569 -18.8717 67.9965 19.5247 8.13372 25.2555 -3.45542 -171.911 -1.56647 -0.831919 4.54188e-006 -4.6773e-006 -1.14017 -1.79557 -7.82245 0.20429 -8.75559e-007 3.14676e-006 -0.0497794 18.3439 68.8284 -20.2197 -8.13649 25.2327 3.48774 
53.8455 95.7717 11.1124 -0.929537 -4.82366 2.38267 0.245355 -1.78038 0.2336 0.493822 0.442849 0.442907 0.488747 2.08788 0.434804 -5.89544 30.4162 0.0544318 6.81071 -5.15138 -1.36636 62.0061 3.00893 1.32191 118.151 44.3495 -35.6519 -6.84165e-006 4.47124e-006 3.00149e-006 -131.099 87.3518 124.597 -5.75923e-006 -4.53921e-006 -3.00417 8.02998 -4.95138 0.697659 -62.8967 -1.57166 1.40151 -121.799 45.9333 46.3773 -3.52008e-006 3.09774e-006 -8.45384e-006 22.2377 87.2555 -16.395 6.54794e-006 1.94832e-006 3.00738 -8.03028 -4.95139 -0.697635 176.734 -6.41477 -2.3807 -180 7.01505e-015 178.754 177.954 3.66017 179.602 1.58977e-007 3.62128e-006 0.0409573 -18.8717 67.9964 19.5244 8.13366 25.2545 -3.45675 -171.911 -1.54334 -0.830083 4.54188e-006 -4.6773e-006 -1.13997 -1.79531 -7.81931 0.204534 -8.75559e-007 3.14676e-006 -0.0495421 18.3434 68.8284 -20.2195 -8.13649 25.2327 3.48774 
53.8506 95.7559 11.1117 -0.929548 -4.80207 2.40019 0.242705 -1.78662 0.236391 0.488658 0.430365 0.448754 0.483508 2.07539 0.440739 -5.77095 30.4345 -0.02447 6.75663 -5.15403 -1.40231 61.9985 2.94912 1.28895 117.932 44.3538 -35.4704 -6.84165e-006 4.47124e-006 3.00149e-006 -130.592 87.3525 124.094 -5.75923e-006 -4.53921e-006 -3.00417 8.02998 -4.95138 0.697659 -62.8587 -1.54633 1.38316 -121.572 45.8876 46.0885 -3.52008e-006 3.09774e-006 -8.45384e-006 22.0969 87.2363 -16.2712 6.54794e-006 1.94832e-006 3.00738 -8.03028 -4.95139 -0.697635 176.735 -6.39601 -2.37976 -180 7.01505e-015 178.754 177.947 3.65664 179.602 1.58977e-007 3.62128e-006 0.0409577 -18.8717 67.9963 19.5243 8.13357 25.2532 -3.45848 -171.91 -1.51769 -0.828672 4.54188e-006 -4.6773e-006 -1.1398 -1.79482 -7.81722 0.20483 -8.75559e-007 3.14676e-006 -0.0492512 18.3432 68.8287 -20.2197 -8.13649 25.2327 3.48774 
